<?xml version="1.0"?>
<svg xmlns="http://www.w3.org/2000/svg" id="Outline" viewBox="0 0 512 512" width="512" height="512"><path d="M488,40H440V32a8,8,0,0,0-16,0v8H408V32a8,8,0,0,0-16,0v8H376V32a8,8,0,0,0-16,0v8H344V32a8,8,0,0,0-16,0v8H312V32a8,8,0,0,0-16,0v8H280V32a8,8,0,0,0-16,0v8H248V32a8,8,0,0,0-16,0v8H216V32a8,8,0,0,0-16,0v8H184V32a8,8,0,0,0-16,0v8H152V32a8,8,0,0,0-16,0v8H120V32a8,8,0,0,0-16,0v8H88V32a8,8,0,0,0-16,0v8H24a8,8,0,0,0-8,8V432a8,8,0,0,0,8,8H359.436l40.969,40.97a23.991,23.991,0,0,0,33.935,0l22.63-22.63A23.85,23.85,0,0,0,464,441.367c0-.458-.016-.913-.042-1.367H488a8,8,0,0,0,8-8V48A8,8,0,0,0,488,40ZM267.25,291.251l20.737,7.975-12.761,12.762Zm62.142,44.573a8,8,0,0,0,5.469-7.59v-3.318l71.2,71.2L394.744,407.43,324.7,337.387Zm87.982,71.6,11.313,11.312-33.941,33.941-11.312-11.313Zm-98.513-84.96-11.5,3.833a8,8,0,0,0-5.059,5.06l-3.833,11.5H287.1l-5.59-14.532,22.818-22.818,14.532,5.59Zm-14.627,36.392a8,8,0,0,0,7.59-5.47l1.563-4.69,70.043,70.043-11.311,11.311-71.193-71.194Zm141.421,88.164L423.021,469.66a7.986,7.986,0,0,1-11.3-.005L406.061,464,440,430.056l5.654,5.654a8,8,0,0,1,0,11.315ZM480,424H456.574L332.52,299.945l-.015.014a7.96,7.96,0,0,0-2.772-1.819l-73.539-28.285a8,8,0,0,0-10.339,10.339L251.935,296H88a8.009,8.009,0,0,1-8-8V256a56.063,56.063,0,0,1,56-56H336a40.068,40.068,0,0,0,39.2-32.02c.267.005.532.02.8.02a8,8,0,0,0,0-16,24.028,24.028,0,0,1-24-24v-8h20.687l13.656,13.657a8,8,0,0,0,11.314,0L411.313,120H432v8a24.028,24.028,0,0,1-24,24,8,8,0,0,0,0,16v32c0,27.643-12.53,58.765-29.8,74a8,8,0,0,0,10.588,12C409.522,267.7,424,232.339,424,200V164.65A40.052,40.052,0,0,0,448,128V112a8,8,0,0,0-8-8H408a8,8,0,0,0-5.657,2.343L392,116.687l-10.343-10.344A8,8,0,0,0,376,104H344a8,8,0,0,0-8,8v16a40.048,40.048,0,0,0,23.578,36.459A24.037,24.037,0,0,1,336,184H268l-21.6-28.8a8,8,0,0,0-12.8,0L212,184H136a72.081,72.081,0,0,0-72,72v32a24.027,24.027,0,0,0,24,24h56v8a40.045,40.045,0,0,0,40,40h16a8,8,0,0,0,8-8V312h50.088l16.052,41.733a7.956,7.956,0,0,0,1.824,2.777l-.009.01L343.436,424H32V56H72v8a8,8,0,0,0,16,0V56h16v8a8,8,0,0,0,16,0V56h16v8a8,8,0,0,0,16,0V56h16v8a8,8,0,0,0,16,0V56h16v8a8,8,0,0,0,16,0V56h16v8a8,8,0,0,0,16,0V56h16v8a8,8,0,0,0,16,0V56h16v8a8,8,0,0,0,16,0V56h16v8a8,8,0,0,0,16,0V56h16v8a8,8,0,0,0,16,0V56h16v8a8,8,0,0,0,16,0V56h16v8a8,8,0,0,0,16,0V56h40ZM160,312h32v32h-8a24.027,24.027,0,0,1-24-24Zm72-128,8-10.667L248,184Z"/><circle cx="128" cy="256" r="8"/></svg>
