<svg xmlns="http://www.w3.org/2000/svg" height="1500" width="500">

  <polygon points="243,75 250,0 257,75" />
  <rect x="210" y="75" width="80" height="30" fill="#b0a697"/>
  <polygon points="100,100 400,100 250,1500" fill="#327688"/>
  <rect x="100" y="120" width="300" height="2" fill="#ffffffa0"/>
  <rect x="100" y="140" width="300" height="2" fill="#ffffffa0"/>
  <rect x="100" y="160" width="300" height="2" fill="#ffffffa0"/>
  <rect x="100" y="180" width="300" height="2" fill="#ffffffa0"/>
  <rect x="100" y="200" width="300" height="2" fill="#ffffffa0"/>
  <rect x="100" y="220" width="300" height="2" fill="#ffffffa0"/>
  <rect x="100" y="240" width="300" height="2" fill="#ffffffa0"/>
  <rect x="100" y="260" width="300" height="2" fill="#ffffffa0"/>
  <rect x="100" y="280" width="300" height="2" fill="#ffffffa0"/>
  <rect x="100" y="300" width="300" height="2" fill="#ffffffa0"/>
  <rect x="100" y="320" width="300" height="2" fill="#ffffffa0"/>
  <rect x="100" y="340" width="300" height="2" fill="#ffffffa0"/>
  <rect x="100" y="360" width="300" height="2" fill="#ffffffa0"/>
  <rect x="100" y="380" width="300" height="2" fill="#ffffffa0"/>
  <rect x="100" y="400" width="300" height="2" fill="#ffffffa0"/>
  <rect x="100" y="420" width="300" height="2" fill="#ffffffa0"/>
  <rect x="100" y="440" width="300" height="2" fill="#ffffffa0"/>
  <rect x="100" y="460" width="300" height="2" fill="#ffffffa0"/>
  <rect x="100" y="480" width="300" height="2" fill="#ffffffa0"/>
  <rect x="100" y="500" width="300" height="2" fill="#ffffffa0"/>
  <rect x="100" y="520" width="300" height="2" fill="#ffffffa0"/>
  <rect x="100" y="540" width="300" height="2" fill="#ffffffa0"/>
  <rect x="100" y="560" width="300" height="2" fill="#ffffffa0"/>
  <rect x="100" y="580" width="300" height="2" fill="#ffffffa0"/>
  <rect x="100" y="600" width="300" height="2" fill="#ffffffa0"/>
  <rect x="100" y="620" width="300" height="2" fill="#ffffffa0"/>
  <rect x="100" y="640" width="300" height="2" fill="#ffffffa0"/>
  <rect x="100" y="660" width="300" height="2" fill="#ffffffa0"/>
  <rect x="100" y="680" width="300" height="2" fill="#ffffffa0"/>
  <rect x="100" y="700" width="300" height="2" fill="#ffffffa0"/>
  <rect x="100" y="720" width="300" height="2" fill="#ffffffa0"/>
  <rect x="100" y="740" width="300" height="2" fill="#ffffffa0"/>
  <rect x="100" y="760" width="300" height="2" fill="#ffffffa0"/>
  <rect x="100" y="780" width="300" height="2" fill="#ffffffa0"/>
  <rect x="100" y="800" width="300" height="2" fill="#ffffffa0"/>
  <rect x="100" y="820" width="300" height="2" fill="#ffffffa0"/>
  <rect x="100" y="840" width="300" height="2" fill="#ffffffa0"/>
  <rect x="100" y="860" width="300" height="2" fill="#ffffffa0"/>
  <rect x="100" y="880" width="300" height="2" fill="#ffffffa0"/>
  <rect x="100" y="900" width="300" height="2" fill="#ffffffa0"/>
  <rect x="100" y="920" width="300" height="2" fill="#ffffffa0"/>
  <rect x="100" y="940" width="300" height="2" fill="#ffffffa0"/>
  <rect x="100" y="960" width="300" height="2" fill="#ffffffa0"/>
  <rect x="100" y="980" width="300" height="2" fill="#ffffffa0"/>
  <rect x="100" y="1000" width="300" height="2" fill="#ffffffa0"/>
  <rect x="100" y="1020" width="300" height="2" fill="#ffffffa0"/>
  <rect x="100" y="1040" width="300" height="2" fill="#ffffffa0"/>
  <rect x="100" y="1060" width="300" height="2" fill="#ffffffa0"/>
  <rect x="100" y="1080" width="300" height="2" fill="#ffffffa0"/>
  <rect x="100" y="1100" width="300" height="2" fill="#ffffffa0"/>
  <rect x="100" y="1120" width="300" height="2" fill="#ffffffa0"/>
  <rect x="100" y="1140" width="300" height="2" fill="#ffffffa0"/>
  <rect x="100" y="1160" width="300" height="2" fill="#ffffffa0"/>
  <rect x="100" y="1180" width="300" height="2" fill="#ffffffa0"/>
  <rect x="100" y="1200" width="300" height="2" fill="#ffffffa0"/>
  <rect x="100" y="1220" width="300" height="2" fill="#ffffffa0"/>
  <rect x="100" y="1240" width="300" height="2" fill="#ffffffa0"/>
  <rect x="100" y="1260" width="300" height="2" fill="#ffffffa0"/>
  <rect x="100" y="1280" width="300" height="2" fill="#ffffffa0"/>
  <rect x="100" y="1300" width="300" height="2" fill="#ffffffa0"/>
  <rect x="100" y="1320" width="300" height="2" fill="#ffffffa0"/>
  <rect x="100" y="1340" width="300" height="2" fill="#ffffffa0"/>
  <rect x="100" y="1360" width="300" height="2" fill="#ffffffa0"/>
  <rect x="100" y="1380" width="300" height="2" fill="#ffffffa0"/>
  <rect x="100" y="1400" width="300" height="2" fill="#ffffffa0"/>
  <rect x="100" y="1420" width="300" height="2" fill="#ffffffa0"/>
  <rect x="100" y="1440" width="300" height="2" fill="#ffffffa0"/>
  <rect x="100" y="1460" width="300" height="2" fill="#ffffffa0"/>
  <rect x="100" y="1480" width="300" height="2" fill="#ffffffa0"/>

  <polygon points="100,100 0,1500 250,1500" fill="#0f4554"/>
  <!-- <rect x="-40" y="1480" width="300" height="2" fill="#ffffffa0" transform="rotate(-1)"/> -->
  <polygon points="400,100 500,1500 250,1500" fill="#5c9aac"/>

</svg>
