<svg xmlns="http://www.w3.org/2000/svg" height="2400" width="490">
  <rect x="0" y="400" width="490" height="1800" fill="#e3e3e3"/>

  <rect x="300" y="140" width="20" height="260" style="fill:rgb(27, 27, 27)"/>
  <rect x="307.5" y="0" width="5" height="140" style="fill:rgb(226, 226, 226)"/>

  <rect x="20" y="540" width="450" height="25" style="fill:rgb(71, 71, 71)"/>
  <rect x="20" y="590" width="450" height="25" style="fill:rgb(71, 71, 71)"/>
  <rect x="20" y="640" width="450" height="25" style="fill:rgb(71, 71, 71)"/>
  <rect x="20" y="690" width="450" height="25" style="fill:rgb(71, 71, 71)"/>
  <rect x="20" y="740" width="450" height="25" style="fill:rgb(71, 71, 71)"/>
  <rect x="20" y="790" width="450" height="25" style="fill:rgb(71, 71, 71)"/>
  <rect x="20" y="840" width="450" height="25" style="fill:rgb(71, 71, 71)"/>
  <rect x="20" y="890" width="450" height="25" style="fill:rgb(71, 71, 71)"/>
  <rect x="20" y="940" width="450" height="25" style="fill:rgb(71, 71, 71)"/>
  <rect x="20" y="990" width="450" height="25" style="fill:rgb(71, 71, 71)"/>
  <rect x="20" y="1040" width="450" height="25" style="fill:rgb(71, 71, 71)"/>
  <rect x="20" y="1090" width="450" height="25" style="fill:rgb(71, 71, 71)"/>
  <rect x="20" y="1140" width="450" height="25" style="fill:rgb(71, 71, 71)"/>
  <rect x="20" y="1190" width="450" height="25" style="fill:rgb(71, 71, 71)"/>
  <rect x="20" y="1240" width="450" height="25" style="fill:rgb(71, 71, 71)"/>
  <rect x="20" y="1290" width="450" height="25" style="fill:rgb(71, 71, 71)"/>
  <rect x="20" y="1340" width="450" height="25" style="fill:rgb(71, 71, 71)"/>
  <rect x="20" y="1390" width="450" height="25" style="fill:rgb(71, 71, 71)"/>
  <rect x="20" y="1440" width="450" height="25" style="fill:rgb(71, 71, 71)"/>
  <rect x="20" y="1490" width="450" height="25" style="fill:rgb(71, 71, 71)"/>
  <rect x="20" y="1540" width="450" height="25" style="fill:rgb(71, 71, 71)"/>
  <rect x="20" y="1590" width="450" height="25" style="fill:rgb(71, 71, 71)"/>
  <rect x="20" y="1640" width="450" height="25" style="fill:rgb(71, 71, 71)"/>
  <rect x="20" y="1690" width="450" height="25" style="fill:rgb(71, 71, 71)"/>
  <rect x="20" y="1740" width="450" height="25" style="fill:rgb(71, 71, 71)"/>
  <rect x="20" y="1790" width="450" height="25" style="fill:rgb(71, 71, 71)"/>
  <rect x="20" y="1840" width="450" height="25" style="fill:rgb(71, 71, 71)"/>
  <rect x="20" y="1890" width="450" height="25" style="fill:rgb(71, 71, 71)"/>
  <rect x="20" y="1940" width="450" height="25" style="fill:rgb(71, 71, 71)"/>
  <rect x="20" y="1990" width="450" height="25" style="fill:rgb(71, 71, 71)"/>
  <rect x="20" y="2040" width="450" height="25" style="fill:rgb(71, 71, 71)"/>
  <rect x="20" y="2090" width="450" height="25" style="fill:rgb(71, 71, 71)"/>
  <rect x="20" y="2140" width="450" height="25" style="fill:rgb(71, 71, 71)"/>

  <rect x="0" y="430" width="490" height="2" style="fill:#c1c1c1" />
  <rect x="0" y="460" width="490" height="2" style="fill:#c1c1c1" />
  <rect x="0" y="490" width="490" height="2" style="fill:#c1c1c1" />
  <rect x="0" y="520" width="490" height="2" style="fill:#c1c1c1" />


  <rect x="20" y="400" width="2" height="1800" style="fill:#c1c1c1" />
  <rect x="50" y="400" width="2" height="1800" style="fill:#c1c1c1" />
  <rect x="80" y="400" width="2" height="1800" style="fill:#c1c1c1" />
  <rect x="110" y="400" width="2" height="1800" style="fill:#c1c1c1" />
  <rect x="140" y="400" width="2" height="1800" style="fill:#c1c1c1" />
  <rect x="170" y="400" width="2" height="1800" style="fill:#c1c1c1" />
  <rect x="200" y="400" width="2" height="1800" style="fill:#c1c1c1" />
  <rect x="230" y="400" width="2" height="1800" style="fill:#c1c1c1" />
  <rect x="260" y="400" width="2" height="1800" style="fill:#c1c1c1" />
  <rect x="290" y="400" width="2" height="1800" style="fill:#c1c1c1" />
  <rect x="320" y="400" width="2" height="1800" style="fill:#c1c1c1" />
  <rect x="350" y="400" width="2" height="1800" style="fill:#c1c1c1" />
  <rect x="380" y="400" width="2" height="1800" style="fill:#c1c1c1" />
  <rect x="410" y="400" width="2" height="1800" style="fill:#c1c1c1" />
  <rect x="440" y="400" width="2" height="1800" style="fill:#c1c1c1" />
  <rect x="470" y="400" width="2" height="1800" style="fill:#c1c1c1" />

  <text x="20" y="490" style="font-size:52px;fill:#3384a2;font-family:'Times New Roman';font-weight:600">BRF</text>
  <circle cx="180" cy="472" r="35" fill="#cc1b2d"/>



</svg>
