<svg xmlns="http://www.w3.org/2000/svg" height="2000" width="320">
  <rect x="0" y="0" width="320" height="2000" style="fill:rgb(105, 105, 105)"/>

  <rect x="20" y="20" width="40" height="50" style="fill:rgb(71, 71, 71)"/>
  <rect x="80" y="20" width="40" height="50" style="fill:rgb(71, 71, 71)"/>
  <rect x="140" y="20" width="40" height="50" style="fill:rgb(71, 71, 71)"/>
  <rect x="200" y="20" width="40" height="50" style="fill:rgb(71, 71, 71)"/>
  <rect x="260" y="20" width="40" height="50" style="fill:rgb(71, 71, 71)"/>

  <rect x="20" y="90" width="40" height="50" style="fill:rgb(71, 71, 71)"/>
  <rect x="80" y="90" width="40" height="50" style="fill:rgb(71, 71, 71)"/>
  <rect x="140" y="90" width="40" height="50" style="fill:rgb(71, 71, 71)"/>
  <rect x="200" y="90" width="40" height="50" style="fill:rgb(71, 71, 71)"/>
  <rect x="260" y="90" width="40" height="50" style="fill:rgb(71, 71, 71)"/>

  <rect x="20" y="160" width="40" height="50" style="fill:rgb(71, 71, 71)"/>
  <rect x="80" y="160" width="40" height="50" style="fill:rgb(71, 71, 71)"/>
  <rect x="140" y="160" width="40" height="50" style="fill:rgb(71, 71, 71)"/>
  <rect x="200" y="160" width="40" height="50" style="fill:rgb(71, 71, 71)"/>
  <rect x="260" y="160" width="40" height="50" style="fill:rgb(71, 71, 71)"/>

  <rect x="20" y="230" width="40" height="50" style="fill:rgb(71, 71, 71)"/>
  <rect x="80" y="230" width="40" height="50" style="fill:rgb(71, 71, 71)"/>
  <rect x="140" y="230" width="40" height="50" style="fill:rgb(71, 71, 71)"/>
  <rect x="200" y="230" width="40" height="50" style="fill:rgb(71, 71, 71)"/>
  <rect x="260" y="230" width="40" height="50" style="fill:rgb(71, 71, 71)"/>

  <rect x="20" y="300" width="40" height="50" style="fill:rgb(71, 71, 71)"/>
  <rect x="80" y="300" width="40" height="50" style="fill:rgb(71, 71, 71)"/>
  <rect x="140" y="300" width="40" height="50" style="fill:rgb(71, 71, 71)"/>
  <rect x="200" y="300" width="40" height="50" style="fill:rgb(71, 71, 71)"/>
  <rect x="260" y="300" width="40" height="50" style="fill:rgb(71, 71, 71)"/>

  <rect x="20" y="370" width="40" height="50" style="fill:rgb(71, 71, 71)"/>
  <rect x="80" y="370" width="40" height="50" style="fill:rgb(71, 71, 71)"/>
  <rect x="140" y="370" width="40" height="50" style="fill:rgb(71, 71, 71)"/>
  <rect x="200" y="370" width="40" height="50" style="fill:rgb(71, 71, 71)"/>
  <rect x="260" y="370" width="40" height="50" style="fill:rgb(71, 71, 71)"/>

  <rect x="20" y="440" width="40" height="50" style="fill:rgb(71, 71, 71)"/>
  <rect x="80" y="440" width="40" height="50" style="fill:rgb(71, 71, 71)"/>
  <rect x="140" y="440" width="40" height="50" style="fill:rgb(71, 71, 71)"/>
  <rect x="200" y="440" width="40" height="50" style="fill:rgb(71, 71, 71)"/>
  <rect x="260" y="440" width="40" height="50" style="fill:rgb(71, 71, 71)"/>

  <rect x="20" y="510" width="40" height="50" style="fill:rgb(71, 71, 71)"/>
  <rect x="80" y="510" width="40" height="50" style="fill:rgb(71, 71, 71)"/>
  <rect x="140" y="510" width="40" height="50" style="fill:rgb(71, 71, 71)"/>
  <rect x="200" y="510" width="40" height="50" style="fill:rgb(71, 71, 71)"/>
  <rect x="260" y="510" width="40" height="50" style="fill:rgb(71, 71, 71)"/>

  <rect x="20" y="580" width="40" height="50" style="fill:rgb(71, 71, 71)"/>
  <rect x="80" y="580" width="40" height="50" style="fill:rgb(71, 71, 71)"/>
  <rect x="140" y="580" width="40" height="50" style="fill:rgb(71, 71, 71)"/>
  <rect x="200" y="580" width="40" height="50" style="fill:rgb(71, 71, 71)"/>
  <rect x="260" y="580" width="40" height="50" style="fill:rgb(71, 71, 71)"/>

  <rect x="20" y="650" width="40" height="50" style="fill:rgb(71, 71, 71)"/>
  <rect x="80" y="650" width="40" height="50" style="fill:rgb(71, 71, 71)"/>
  <rect x="140" y="650" width="40" height="50" style="fill:rgb(71, 71, 71)"/>
  <rect x="200" y="650" width="40" height="50" style="fill:rgb(71, 71, 71)"/>
  <rect x="260" y="650" width="40" height="50" style="fill:rgb(71, 71, 71)"/>

  <rect x="20" y="720" width="40" height="50" style="fill:rgb(71, 71, 71)"/>
  <rect x="80" y="720" width="40" height="50" style="fill:rgb(71, 71, 71)"/>
  <rect x="140" y="720" width="40" height="50" style="fill:rgb(71, 71, 71)"/>
  <rect x="200" y="720" width="40" height="50" style="fill:rgb(71, 71, 71)"/>
  <rect x="260" y="720" width="40" height="50" style="fill:rgb(71, 71, 71)"/>

  <rect x="20" y="790" width="40" height="50" style="fill:rgb(71, 71, 71)"/>
  <rect x="80" y="790" width="40" height="50" style="fill:rgb(71, 71, 71)"/>
  <rect x="140" y="790" width="40" height="50" style="fill:rgb(71, 71, 71)"/>
  <rect x="200" y="790" width="40" height="50" style="fill:rgb(71, 71, 71)"/>
  <rect x="260" y="790" width="40" height="50" style="fill:rgb(71, 71, 71)"/>

  <rect x="20" y="860" width="40" height="50" style="fill:rgb(71, 71, 71)"/>
  <rect x="80" y="860" width="40" height="50" style="fill:rgb(71, 71, 71)"/>
  <rect x="140" y="860" width="40" height="50" style="fill:rgb(71, 71, 71)"/>
  <rect x="200" y="860" width="40" height="50" style="fill:rgb(71, 71, 71)"/>
  <rect x="260" y="860" width="40" height="50" style="fill:rgb(71, 71, 71)"/>

</svg>
