<svg xmlns="http://www.w3.org/2000/svg" height="100" width="100">

  <defs>
    <filter id="blur", x="-100%" y="-100%" width="400%" height="400%">
      <feGaussianBlur in="SourceGraphic" stdDeviation="3" />
    </filter>
  </defs>

  <circle  cx="50" cy="50" r="50" fill="rgba(#212121, 0.12)" opacity="0.1"/>
  <circle  cx="50" cy="50" r="49" fill="#00b1d6" />
  <clipPath id="clip">
    <circle cx="50" cy="50" r="49" />
  </clipPath>

  <clipPath id="jar">
    <rect x="28" y="29" width="44" height="58" rx="10" fill="#88c2cf" />
    <polygon points="32,26 31,32 38,40 62,40 69,32 68,26" fill="#88c2cf"/>
  </clipPath>

  <polygon points="71,22 101,51 101,101 48,101 31,84" opacity="0.2" clip-path="url(#clip)" />



  <rect x="28" y="29" width="44" height="58" rx="10" fill="#bedfe3" />
  <polygon points="32,26 31,32 38,40 62,40 69,32 68,26" fill="#bedfe3"/>


  <!-- <ellipse cx="50" cy="30" rx="20" ry="1" fill="#669ba7" /> -->
  <!-- <rect x="30" y="30" width="40" height="1" rx="3" ry="3" fill="#669ba7"/> -->
  <!-- <ellipse cx="50" cy="31" rx="20" ry="1" fill="#669ba7" /> -->

  <polygon points="25,20 65,20 145,100 105,100" fill="#abcfd4" clip-path="url(#jar)" filter="url(#blur)" />

  <ellipse cx="50" cy="25" rx="20" ry="1.5" fill="#cccccc" />
  <rect x="30" y="25" width="40" height="1" fill="#cccccc"/>
  <ellipse cx="50" cy="26" rx="20" ry="1.5" fill="#cccccc" />

  <ellipse cx="50" cy="23" rx="21.5" ry="1.5" fill="#b4b4b4" />
  <rect x="28.5" y="23" width="43" height="1" fill="#b4b4b4"/>
  <ellipse cx="50" cy="24" rx="21.5" ry="1.5" fill="#b4b4b4" />

  <ellipse cx="50" cy="22" rx="21" ry="1.5" fill="#d2d2d2" />
  <rect x="29" y="17" width="42" height="5" fill="#d2d2d2"/>
  <ellipse cx="50" cy="17" rx="21" ry="1.5" fill="#eeeeee" />
  <ellipse cx="50" cy="17" rx="9" ry="0.5" fill="#d4d4d4" />
  <ellipse cx="36" cy="57" rx="4" ry="14" fill="#dbfbff" filter="url(#blur)"/>
  <!-- <polygon points="36,36 40,40 38,48" fill="#fff" filter="url(#blur)"/> -->


</svg>
